P2
20 20
21
    8    8   21    0   21   21    0   21    0    0    0    0    0    0   21   21    0   21    0   21
   21   21    0    0   21    0    0    0    0    0    0    0    0    0    0    0    0    0    0   21
   21   18   21    0   21   21   21    0   21    0   21   21   21    0    0    0    0   21   21   21
   20   21    0    0    0    0    0    0   21   21    0   21   21   21    0    0   21   11   21    5
   21   19   21   21    0    0    0    0   21    0    0   21   21    0    0    0    0   21    5    5
   21   21    1   21   21    0    0    0   21   21    0    0   21   21    0    0   21   12   21    5
    1    1    1    1    1   21   21    0    0    0    0   21   21   21    0   21    0   21    9   21
    1   21    1    1    1   21   21   21   21    0    0   21   21    0    0   21    0   21   21    6
    1   21    1   21   21    1   21    3    3   21   21   13   21    0    0   21    0   21    6    6
    1    1    1    1    1    1    1   21    3   21   15   21    0    0    0   21    0   21   21   21
   21    1   21   21    1    1   21   21    3    3   21   21    0    0   21    0    0    0    0   21
   21    1    1   21    1    1    1   21    3   21    0    0    0    0    0    0    0    0   21   21
   21    1   21   21    1   21   21   16   21   21   21    0   21    0    0    0   21    0    0   21
    1    1    1    1    1    1   21   21   21   21   21   21   21   21    0   21    0    0    0    0
    1    1   21    1    1    1    1   21    4    4   21   14   21   21    0    0    0    0   21    0
   21    1   21    1    1    1    1   21   21    4    4   21   21    0    0    0   21   21   10   21
    1    1    1    1    1    1   21   21   21    4   21   21   21    0   21    0   21   21   21    2
    1   21    1   21    1    1   21   21   21   21    0    0   21    0   21   21   21   21    2    2
    1   21    1    1   21    1   21   17   21    7   21    0    0    0    0   21   21    2    2    2
    1   21    1    1    1   21   21   21   21    7   21   21   21    0    0   21    2    2    2    2
