P2
20 20
35
   35    2   35   32   35    0    0    0    0    0    0    0   35   35   35   24   35   13   35   35
   35    2   35   35   29   35    0   35   35    0    0   35   35   35   25   35   35   13   35   18
   35    2    2   35   35   35    0   35    0    0    0    0    0    0   35   35   35   35   21   35
   35    2    2   35   30   35   35   35    0   35    0    0   35   35    3   35   35   35   35   35
    2    2   35    2   35   35    0   35    0   35    0    0    0   35    3    3   35   35   35   35
   35    2    2    2   35    0    0    0    0    0   35   35    0   35    3    3    3    3   35   35
    2    2   35    2   35   35   35    0    0   35   35    0    0   35   35   35    3    3   35   35
   35    2    2   35    2    2   35   35    0    0    0    0    0    0    0   35    3   35   35   19
   35   35    2    2    2   35   16   35   35    0    0    0   35   35   35   35   35   35   22   35
   35   35   35    2   35   35   16   35   35   35    0    0    0    0   35   11   11   11   35   35
    7    7   35    2   35   35   35   35   28   35   35    0    0    0   35   35   11   35    5    5
    7    7   35   35    1    1    1    1   35    6    6   35   35   35    4    4   35    5    5   35
   35    7    7   35   35   35    1    1    1   35    6   35    4   35    4   35    5    5   35   20
    1   35   35    1    1    1    1   35    1   35    6   35    4    4    4   35   35   35   35   35
    1   35    1   35    1    1    1   35   35    6    6   35   35   35    4   35   35    8    8    8
    1   35    1   35    1    1   35    9   35   35   35   35   35   35   35   12   35    8    8   35
    1   35    1    1    1   35    9    9   35   35   35   35   35   26   35   12   35   35   35   35
    1    1    1   35   35   35   35    9   35   35   15   35   35   35   35   12   35   10   10   10
    1   35   35   35   31   35   35    9   35   35   15   35   14   14   35   12   35   10   35   35
   35   34   35   33   35   17   17   35   35   27   35   35   35   35   35   35   35   35   23   35
